<svg xmlns="http://www.w3.org/2000/svg" viewBox="0 0 32 32">
  <circle cx="16" cy="16" r="16" fill="#3B99FC"/>
  <path d="M10.2 12.8c3.2-3.1 8.4-3.1 11.6 0l.4.4c.2.1.2.4 0 .5l-1.3 1.3c-.1.1-.2.1-.3 0l-.5-.5c-2.2-2.2-5.8-2.2-8.1 0l-.6.5c-.1.1-.2.1-.3 0l-1.3-1.3c-.2-.1-.2-.4 0-.5l.4-.4zm14.3 2.7l1.2 1.2c.2.1.2.4 0 .5l-5.2 5.1c-.2.2-.4.2-.6 0l-3.7-3.6c0-.1-.1-.1-.1 0l-3.7 3.6c-.2.2-.4.2-.6 0l-5.2-5.1c-.2-.1-.2-.4 0-.5l1.2-1.2c.2-.2.4-.2.6 0l3.7 3.6c0 .1.1.1.1 0l3.7-3.6c.2-.2.4-.2.6 0l3.7 3.6c0 .1.1.1.1 0l3.7-3.6c.2-.2.4-.2.6 0z" fill="#fff"/>
</svg>
